<?xml version="1.0" encoding="utf-8"?>
<!-- Generator: Adobe Illustrator 16.0.0, SVG Export Plug-In . SVG Version: 6.00 Build 0)  -->
<!DOCTYPE svg PUBLIC "-//W3C//DTD SVG 1.1//EN" "http://www.w3.org/Graphics/SVG/1.1/DTD/svg11.dtd">
<svg version="1.1" id="Layer_1" xmlns="http://www.w3.org/2000/svg" xmlns:xlink="http://www.w3.org/1999/xlink" x="0px" y="0px"
	 width="595px" height="125px" viewBox="0 0 595 125" enable-background="new 0 0 595 125" xml:space="preserve">
<g id="Layer_4">
	<g>
		<rect x="131.184" y="28.983" fill="none" width="273.816" height="74.884"/>
		<path fill="#F1F2F2" d="M165.211,29.922c4.324,0,8.272,0.644,11.844,1.927c3.572,1.285,6.658,3.087,9.259,5.405
			c2.6,2.319,4.637,5.092,6.11,8.318c1.472,3.229,2.303,6.754,2.491,10.575c0.062,1.316,0.094,2.523,0.094,3.619
			c0,1.098,0,2.147,0,3.149c0,1.003,0,2.037,0,3.101c0,1.066-0.033,2.227-0.094,3.479c-0.188,3.887-1.003,7.426-2.444,10.623
			c-1.442,3.195-3.431,5.953-5.969,8.271s-5.562,4.121-9.071,5.404c-3.51,1.285-7.426,1.928-11.75,1.928h-25.38
			c-0.69,0-1.285-0.25-1.786-0.752c-0.502-0.502-0.752-1.096-0.752-1.787V32.46c0-0.689,0.25-1.284,0.752-1.786
			c0.501-0.501,1.096-0.752,1.786-0.752H165.211z M177.525,55.772c-0.376-7.205-4.638-10.81-12.784-10.81h-9.588v35.719h10.058
			c7.896,0,12-3.602,12.314-10.809c0.062-1.316,0.094-2.553,0.094-3.715c0-1.158,0-2.285,0-3.383c0-1.096,0-2.209,0-3.337
			S177.587,57.088,177.525,55.772z"/>
		<path fill="#F1F2F2" d="M238.814,29.922c1.253,0,2.209,0.345,2.867,1.034c0.658,0.689,1.112,1.379,1.363,2.067l20.492,59.22
			c0.25,0.627,0.376,1.098,0.376,1.41c0,0.564-0.204,1.051-0.611,1.457c-0.409,0.408-0.893,0.611-1.457,0.611H250
			c-1.254,0-2.147-0.266-2.679-0.799c-0.533-0.533-0.862-1.049-0.987-1.551l-2.632-7.803h-25.004l-2.632,7.803
			c-0.126,0.502-0.455,1.018-0.987,1.551c-0.533,0.533-1.426,0.799-2.679,0.799h-11.844c-0.564,0-1.05-0.203-1.457-0.611
			c-0.408-0.406-0.611-0.893-0.611-1.457c0-0.313,0.125-0.783,0.376-1.41l20.492-59.22c0.25-0.688,0.705-1.378,1.363-2.067
			c0.658-0.689,1.613-1.034,2.867-1.034H238.814z M223.586,71h15.228L231.2,48.44L223.586,71z"/>
		<path fill="#F1F2F2" d="M313.262,29.922c0.688,0,1.283,0.251,1.785,0.752c0.501,0.502,0.752,1.097,0.752,1.786v9.964
			c0,0.69-0.251,1.285-0.752,1.786c-0.502,0.502-1.097,0.752-1.785,0.752h-16.544v48.221c0,0.691-0.251,1.285-0.752,1.787
			c-0.502,0.502-1.097,0.752-1.786,0.752h-12.314c-0.69,0-1.285-0.25-1.786-0.752c-0.502-0.502-0.752-1.096-0.752-1.787V44.962
			h-16.544c-0.69,0-1.285-0.25-1.786-0.752c-0.502-0.501-0.752-1.096-0.752-1.786V32.46c0-0.689,0.25-1.284,0.752-1.786
			c0.501-0.501,1.096-0.752,1.786-0.752H313.262z"/>
		<path fill="#F1F2F2" d="M352.46,29.922c1.253,0,2.209,0.345,2.866,1.034c0.658,0.689,1.112,1.379,1.363,2.067l20.492,59.22
			c0.25,0.627,0.376,1.098,0.376,1.41c0,0.564-0.204,1.051-0.611,1.457c-0.408,0.408-0.893,0.611-1.457,0.611h-11.844
			c-1.254,0-2.147-0.266-2.679-0.799c-0.533-0.533-0.862-1.049-0.987-1.551l-2.632-7.803h-25.004l-2.633,7.803
			c-0.125,0.502-0.455,1.018-0.986,1.551c-0.533,0.533-1.426,0.799-2.68,0.799h-11.844c-0.563,0-1.05-0.203-1.457-0.611
			c-0.408-0.406-0.61-0.893-0.61-1.457c0-0.313,0.124-0.783,0.376-1.41l20.492-59.22c0.25-0.688,0.705-1.378,1.363-2.067
			c0.657-0.689,1.612-1.034,2.866-1.034H352.46z M337.231,71h15.229l-7.614-22.56L337.231,71z"/>
	</g>
	<g opacity="0.5">
		<rect x="381.184" y="28.983" fill="none" width="273.816" height="74.884"/>
		<path fill="#F1F2F2" d="M437.678,29.922c0.688,0,1.283,0.251,1.785,0.752c0.502,0.502,0.753,1.097,0.753,1.786v60.723
			c0,0.691-0.251,1.285-0.753,1.787s-1.097,0.752-1.785,0.752h-3.854c-0.691,0-1.285-0.25-1.787-0.752s-0.752-1.096-0.752-1.787
			V66.676h-33.088v26.508c0,0.691-0.251,1.285-0.752,1.787c-0.502,0.502-1.097,0.752-1.785,0.752h-3.854
			c-0.69,0-1.285-0.236-1.786-0.705c-0.502-0.471-0.752-1.082-0.752-1.834V32.46c0-0.689,0.25-1.284,0.752-1.786
			c0.501-0.501,1.096-0.752,1.786-0.752h3.854c0.688,0,1.283,0.251,1.785,0.752c0.501,0.502,0.752,1.097,0.752,1.786v25.756h33.088
			V32.46c0-0.689,0.25-1.284,0.752-1.786c0.502-0.501,1.096-0.752,1.787-0.752H437.678z"/>
		<path fill="#F1F2F2" d="M458.921,95.723c-0.69,0-1.285-0.25-1.786-0.752c-0.502-0.502-0.752-1.096-0.752-1.787V32.46
			c0-0.689,0.25-1.284,0.752-1.786c0.501-0.501,1.096-0.752,1.786-0.752h3.854c0.688,0,1.283,0.251,1.785,0.752
			c0.501,0.502,0.752,1.097,0.752,1.786v60.723c0,0.691-0.251,1.285-0.752,1.787c-0.502,0.502-1.097,0.752-1.785,0.752H458.921z"/>
		<path fill="#F1F2F2" d="M521.9,32.272c0.188-0.501,0.531-1.018,1.034-1.551c0.501-0.531,1.378-0.799,2.632-0.799h3.479
			c0.563,0,1.049,0.204,1.457,0.61c0.406,0.409,0.61,0.894,0.61,1.457c0,0.314-0.063,0.628-0.188,0.94l-20.303,59.033
			c-0.377,1.127-0.988,2.037-1.834,2.725c-0.846,0.691-1.896,1.035-3.148,1.035h-3.76c-1.255,0-2.289-0.344-3.103-1.035
			c-0.815-0.688-1.409-1.598-1.786-2.725L476.592,32.93c-0.125-0.313-0.188-0.626-0.188-0.94c0-0.563,0.203-1.048,0.611-1.457
			c0.406-0.406,0.893-0.61,1.457-0.61h3.479c1.252,0,2.129,0.268,2.631,0.799c0.502,0.533,0.847,1.05,1.035,1.551l18.141,54.05
			L521.9,32.272z"/>
		<path fill="#F1F2F2" d="M582.812,87.262c0.688,0,1.284,0.252,1.786,0.752c0.5,0.502,0.752,1.098,0.752,1.787v3.383
			c0,0.691-0.252,1.285-0.752,1.787c-0.502,0.502-1.098,0.752-1.786,0.752h-37.976c-0.691,0-1.285-0.25-1.787-0.752
			s-0.752-1.096-0.752-1.787V32.46c0-0.689,0.25-1.284,0.752-1.786c0.502-0.501,1.096-0.752,1.787-0.752h37.224
			c0.688,0,1.284,0.251,1.786,0.752c0.5,0.502,0.752,1.097,0.752,1.786v3.384c0,0.69-0.252,1.285-0.752,1.786
			c-0.502,0.502-1.098,0.752-1.786,0.752h-30.832v19.834h28.764c0.688,0,1.284,0.251,1.786,0.752
			c0.501,0.502,0.752,1.097,0.752,1.786v3.384c0,0.689-0.251,1.285-0.752,1.785c-0.502,0.502-1.098,0.752-1.786,0.752h-28.764
			v20.586H582.812z"/>
	</g>
</g>
<g id="Layer_2">
	<g>
		<path fill="#FFFFFF" d="M109.49,85.528c0.029,3.3-2.273,7.37-5.117,9.045l-38.838,22.882c-2.843,1.674-7.52,1.715-10.392,0.091
			L15.908,95.35c-2.872-1.624-5.246-5.653-5.275-8.953l-0.396-45.074c-0.029-3.3,2.273-7.371,5.117-9.045L54.192,9.396
			c2.843-1.675,7.52-1.716,10.392-0.091l39.234,22.195c2.873,1.625,5.246,5.654,5.275,8.954L109.49,85.528z"/>
		<path fill="none" stroke="#494A4D" stroke-width="6" stroke-miterlimit="10" d="M109.49,85.528c0.029,3.3-2.273,7.37-5.117,9.045
			l-38.838,22.882c-2.843,1.674-7.52,1.715-10.392,0.091L15.908,95.35c-2.872-1.624-5.246-5.653-5.275-8.953l-0.396-45.074
			c-0.029-3.3,2.273-7.371,5.117-9.045L54.192,9.396c2.843-1.675,7.52-1.716,10.392-0.091l39.234,22.195
			c2.873,1.625,5.246,5.654,5.275,8.954L109.49,85.528z"/>
	</g>
	<path fill="#E55B25" d="M88.434,86.676c2.711-1.758,4.882-5.605,4.882-8.783v-3.236L33.411,40.07l-2.804,1.618
		c-2.75,1.589-4.998,5.393-5.165,8.619L88.434,86.676z"/>
	<path fill="#FAB317" d="M25.911,70.38v6.646c0.001,3.3,2.338,7.351,5.196,9.001l23.56,13.603c2.858,1.649,7.535,1.648,10.393-0.001
		l5.756-3.323L25.911,70.38z"/>
	<path fill="#FAB317" d="M93.816,56.469v-6.646c0-3.3-2.338-7.35-5.196-9L65.06,27.22c-2.858-1.65-7.534-1.65-10.393,0l-5.756,3.323
		L93.816,56.469z"/>
</g>
<g>
</g>
<g>
</g>
<g>
</g>
<g>
</g>
<g>
</g>
<g>
</g>
</svg>
