<?xml version="1.0" encoding="utf-8"?>
<!-- Generator: Adobe Illustrator 16.0.0, SVG Export Plug-In . SVG Version: 6.00 Build 0)  -->
<!DOCTYPE svg PUBLIC "-//W3C//DTD SVG 1.1//EN" "http://www.w3.org/Graphics/SVG/1.1/DTD/svg11.dtd">
<svg version="1.1" id="Layer_3" xmlns="http://www.w3.org/2000/svg" xmlns:xlink="http://www.w3.org/1999/xlink" x="0px" y="0px"
	 width="230px" height="230px" viewBox="182.5 -52.5 230 230" enable-background="new 182.5 -52.5 230 230" xml:space="preserve">
<circle fill="#FAB317" cx="298" cy="63" r="111.5"/>
<path fill="#E6E6E8" d="M312.486,72.247c1.398-1.349,3.625-1.308,4.974,0.089l15.672,16.248c1.349,1.398,1.31,3.625-0.09,4.975
	l-3.293,3.176c-1.398,1.35-3.626,1.311-4.975-0.09l-15.672-16.246c-1.349-1.398-1.309-3.626,0.091-4.975L312.486,72.247z"/>
<path fill="#2985AF" d="M331.732,89.084c2.331-2.248,6.042-2.18,8.289,0.148l26.12,27.08c2.248,2.332,2.183,6.043-0.149,8.291
	l-5.488,5.295c-2.331,2.248-6.043,2.182-8.291-0.15l-26.12-27.08c-2.247-2.33-2.181-6.041,0.15-8.289L331.732,89.084z"/>
<ellipse fill="#E6E6E8" stroke="#494A4D" stroke-width="14" stroke-miterlimit="10" cx="274.84" cy="38.914" rx="44.5" ry="43.645"/>
<g id="Layer_2_1_">
	<g>
		<path fill="#FFFFFF" d="M296.695,49.226c0.014,1.485-1.023,3.317-2.303,4.07l-17.477,10.298c-1.279,0.752-3.385,0.771-4.677,0.039
			l-17.656-9.987c-1.292-0.73-2.361-2.543-2.374-4.029l-0.178-20.283c-0.013-1.485,1.023-3.317,2.303-4.07l17.477-10.297
			c1.28-0.754,3.385-0.772,4.678-0.041l17.654,9.988c1.293,0.731,2.361,2.544,2.375,4.029L296.695,49.226z"/>
		<path fill="none" stroke="#494A4D" stroke-width="6" stroke-miterlimit="10" d="M296.695,49.226
			c0.014,1.485-1.023,3.317-2.303,4.07l-17.477,10.298c-1.279,0.752-3.385,0.771-4.677,0.039l-17.656-9.987
			c-1.292-0.73-2.361-2.543-2.374-4.029l-0.178-20.283c-0.013-1.485,1.023-3.317,2.303-4.07l17.477-10.297
			c1.28-0.754,3.385-0.772,4.678-0.041l17.654,9.988c1.293,0.731,2.361,2.544,2.375,4.029L296.695,49.226z"/>
	</g>
	<path fill="#E55B25" d="M287.221,49.742c1.219-0.791,2.197-2.522,2.197-3.952v-1.457L262.46,28.77l-1.262,0.728
		c-1.237,0.715-2.249,2.427-2.325,3.879L287.221,49.742z"/>
	<path fill="#FAB317" d="M259.085,42.409V45.4c0,1.485,1.052,3.308,2.338,4.051l10.602,6.121c1.286,0.743,3.391,0.742,4.677,0
		l2.591-1.495L259.085,42.409z"/>
	<path fill="#FAB317" d="M289.643,36.149v-2.991c0-1.485-1.053-3.307-2.338-4.05l-10.603-6.122c-1.286-0.742-3.391-0.742-4.677,0
		l-2.591,1.496L289.643,36.149z"/>
</g>
</svg>
